<?xml version="1.0" ?><svg viewBox="0 0 60 60" xmlns="http://www.w3.org/2000/svg"><title/><g id="text"><text font-family="MyriadPro-Regular, Myriad Pro" font-size="9" transform="translate(6.9458 67.39014)"><tspan letter-spacing="0.00602em" x="0.81885" y="10.7998"/><tspan x="5.31006" y="10.7998"/><tspan letter-spacing="-0.01004em" x="13.85059" y="10.7998"/><tspan x="16.70313" y="10.7998"/></text></g><g id="colour"><path d="M32,54V50h6V46H32V27.66a6,6,0,1,0-4,0V59H41V54ZM30,24a2,2,0,1,1,2-2A2.00591,2.00591,0,0,1,30,24Z" fill="#f57b02"/><path d="M32,18a5.957,5.957,0,0,1,3.11749.88251A5.99195,5.99195,0,1,0,26.89221,27.114,5.94241,5.94241,0,0,1,26,24,6.00476,6.00476,0,0,1,32,18Z" fill="#f99338"/><path d="M28,34c-5,0-8-5.91992-8-12H1c1,3,5,5,7,6H3c4,5,9,7,14,9H11c5,4,10,5,17,5" fill="#616161"/><path d="M20.30288,37H17c-5-2-10-4-14-9H7c3.3638,4.20475,8.84919,6.28791,13.48258,8.03363A.49951.49951,0,0,1,20.30288,37Z" fill="#4c4c4c"/><path d="M28,40v2c-7,0-12-1-17-5h4C20,40,23,40,28,40Z" fill="#4c4c4c"/><path d="M5,22c.75107,2.25321,3.19445,3.94231,5.21174,5.06731A.49807.49807,0,0,1,9.965,28H8c-2-1-6-3-7-6Z" fill="#4c4c4c"/><path d="M32,34c5,0,8-5.91992,8-12H59c-1,3-5,5-7,6h5c-4,5-9,7-14,9h6c-5,4-10,5-17,5" fill="#616161"/><path d="M39.69712,37H43c5-2,10-4,14-9H53c-3.3638,4.20475-8.84919,6.28791-13.48258,8.03363A.49951.49951,0,0,0,39.69712,37Z" fill="#4c4c4c"/><path d="M32,40v2c7,0,12-1,17-5H45C40,40,37,40,32,40Z" fill="#4c4c4c"/><path d="M55,22c-.75107,2.25321-3.19445,3.94231-5.21174,5.06731A.49807.49807,0,0,0,50.035,28H52c2-1,6-3,7-6Z" fill="#4c4c4c"/></g><g data-name="Layer 1" id="Layer_1"><path d="M33,22.00036a3,3,0,1,0-3,3A3.00328,3.00328,0,0,0,33,22.00036Zm-3,1a1,1,0,1,1,1-1A1.001,1.001,0,0,1,30,23.00036Z"/><path d="M59.81152,21.41588A1.00044,1.00044,0,0,0,59,21.00036H40a.99974.99974,0,0,0-1,1c0,4.98047-2.2254,10.10681-6,10.88678V28.32653a7,7,0,1,0-6,0v4.56061c-3.7746-.78-6-5.90631-6-10.88678a.99974.99974,0,0,0-1-1H1a.99944.99944,0,0,0-.94824,1.31641,9.86921,9.86921,0,0,0,4.127,4.68359H3a1.00015,1.00015,0,0,0-.78125,1.62451,25.94231,25.94231,0,0,0,9.833,7.37549H11a1.0002,1.0002,0,0,0-.625,1.78076C15.5398,41.913,20.62268,42.904,27,42.99181V59.00036a.99974.99974,0,0,0,1,1H41a.99974.99974,0,0,0,1-1v-5a.99974.99974,0,0,0-1-1H33v-2h5a.99974.99974,0,0,0,1-1v-4a.99974.99974,0,0,0-1-1H33V42.99181c6.37732-.08783,11.46021-1.0788,16.625-5.21069A1.0002,1.0002,0,0,0,49,36.00036H47.94824a25.94231,25.94231,0,0,0,9.833-7.37549A1.00015,1.00015,0,0,0,57,27.00036H55.82129a9.86921,9.86921,0,0,0,4.127-4.68359A.99822.99822,0,0,0,59.81152,21.41588ZM14.19434,38.00036H17a1,1,0,0,0,.37109-1.92871c-4.40723-1.7627-8.59961-3.43945-12.15332-7.07129H8a.99995.99995,0,0,0,.44727-1.89453c-1.50391-.752-4.3457-2.17285-5.78906-4.10547H19.02637c.295,5.61951,3.061,11.25549,7.97363,11.9317v6.05371C22.13818,40.91466,18.08594,40.29436,14.19434,38.00036Zm22.80566,9v2H32a.99974.99974,0,0,0-1,1v4a.99974.99974,0,0,0,1,1h8v3H29V27.7694a1.00093,1.00093,0,0,0-.66211-1.05176,4.99963,4.99963,0,1,1,3.3291-.00146A.99951.99951,0,0,0,31,27.659V46.00036a.99974.99974,0,0,0,1,1ZM51.55274,27.10582A.99995.99995,0,0,0,52,29.00036h2.78223c-3.55371,3.63184-7.74609,5.30859-12.15332,7.07129A1,1,0,0,0,43,38.00036h2.80566c-3.8916,2.294-7.94385,2.91431-12.80566,2.98541V34.93206c4.9126-.67621,7.67865-6.31219,7.97363-11.9317H57.3418C55.89844,24.933,53.05664,26.35387,51.55274,27.10582Z"/></g></svg>